<?xml version="1.0" standalone="no"?>
<!DOCTYPE svg PUBLIC "-//W3C//DTD SVG 20010904//EN"
 "http://www.w3.org/TR/2001/REC-SVG-20010904/DTD/svg10.dtd">
<svg version="1.0" xmlns="http://www.w3.org/2000/svg"
 width="128.000000pt" height="128.000000pt" viewBox="0 0 128.000000 128.000000"
 preserveAspectRatio="xMidYMid meet">
<metadata>
Created by potrace 1.11, written by Peter Selinger 2001-2013
</metadata>
<g transform="translate(0.000000,128.000000) scale(0.100000,-0.100000)"
fill="#000000" stroke="none">
<path d="M590 1243 c-17 -7 -126 -68 -242 -135 -149 -87 -216 -132 -230 -153
-16 -27 -18 -56 -18 -307 0 -167 4 -288 10 -304 14 -37 40 -58 139 -111 102
-56 152 -64 215 -34 72 36 76 54 76 375 0 150 -2 275 -5 277 -2 3 -19 3 -37 1
l-33 -4 0 -251 c1 -251 -4 -310 -24 -330 -22 -22 -76 -10 -151 33 -121 70
-110 35 -110 340 0 308 -15 267 130 352 256 150 308 178 325 178 10 0 88 -41
174 -91 86 -50 176 -103 201 -116 86 -49 80 -24 80 -322 0 -146 -4 -271 -8
-277 -4 -6 -54 -39 -112 -73 -58 -35 -139 -83 -180 -108 -41 -25 -90 -53 -109
-63 l-33 -19 -66 35 c-65 35 -66 35 -85 16 -15 -16 -17 -24 -8 -40 15 -29 113
-82 153 -84 40 -1 32 -6 287 146 142 84 210 130 223 151 16 27 18 56 18 310 0
253 -2 284 -18 315 -16 28 -59 58 -245 166 -125 72 -240 134 -257 136 -16 2
-43 -1 -60 -9z"/>
<path d="M700 842 c-51 -28 -74 -64 -73 -114 1 -58 38 -89 148 -124 99 -32
135 -55 135 -89 0 -32 -33 -53 -90 -59 -63 -6 -107 15 -126 59 -13 32 -18 35
-49 33 -41 -3 -44 -14 -14 -74 35 -73 147 -105 260 -74 50 14 91 61 94 107 5
77 -30 108 -173 154 -77 25 -112 49 -112 77 1 41 38 61 105 57 48 -3 84 -27
97 -66 4 -11 64 -16 75 -6 6 7 -24 75 -41 93 -44 44 -176 58 -236 26z"/>
</g>
</svg>
